<svg width="1023" height="481" viewBox="0 0 1023 481" xmlns="http://www.w3.org/2000/svg" xmlns:xlink="http://www.w3.org/1999/xlink"><title>Group</title><defs><path id="a" d="M.6.329h88.765v176.399H.599V.328z"/><path id="c" d="M.486 29.313h21.546V.243H.486v29.07z"/></defs><g fill="none" fill-rule="evenodd"><path d="M906.87 175.424l-75.69-75.692c-5.82-5.817-5.82-15.254 0-21.072l75.69-75.692c4.133-4.133 11.202-1.206 11.202 4.64v163.175c0 5.847-7.069 8.774-11.202 4.641" fill="#FFF"/><g transform="translate(933.153 .625)"><mask id="b" fill="#fff"><use xlink:href="#a"/></mask><path d="M7.607.348C3.822.054.599 3.115.599 6.912v35.345c0 3.203 2.296 6.045 5.47 6.473 19.673 2.661 34.837 19.463 34.837 39.799 0 20.331-15.164 37.136-34.837 39.795-3.174.43-5.47 3.271-5.47 6.474v35.346c0 3.797 3.223 6.857 7.008 6.564 45.748-3.56 81.758-41.68 81.758-88.18 0-46.501-36.01-84.62-81.758-88.18" fill="#FFF" mask="url(#b)"/></g><path d="M213.108 465.917c3.646 0 5.34-1.58 5.34-5.003 0-3.383-1.694-4.966-5.34-4.966h-5.003v9.969h5.003zm.528-14.178c5.94 0 9.44 3.46 9.44 9.175 0 5.792-3.5 9.216-9.44 9.216h-5.53v7.934c0 .377-.188.565-.527.565h-3.462c-.335 0-.524-.188-.524-.565v-25.76c0-.377.19-.565.524-.565h9.519zm28.641 23.056c3.91 0 5.94-2.148 5.94-6.17v-6.883c0-4.06-2.03-6.204-5.94-6.204-3.912 0-5.943 2.144-5.943 6.204v6.883c0 4.022 2.03 6.17 5.943 6.17m0 4.285c-6.658 0-10.568-3.875-10.568-10.455v-6.92c0-6.58 3.91-10.417 10.568-10.417 6.656 0 10.566 3.838 10.566 10.417v6.92c0 6.58-3.91 10.455-10.566 10.455m25.595-23.167v8.839h4.74c3.493 0 5.152-1.392 5.152-4.401 0-3.045-1.659-4.438-5.153-4.438h-4.739zm10.566 22.716a.698.698 0 0 1-.637-.376l-6.585-9.438h-3.344v9.249c0 .377-.19.565-.527.565h-3.46c-.337 0-.527-.188-.527-.565v-25.76c0-.378.19-.565.528-.565h8.725c6.166 0 9.777 3.197 9.777 8.577 0 4.135-2.294 6.955-6.244 8.008l6.885 9.626c.26.415.074.679-.338.679h-4.253z" fill="#FFF"/><g transform="translate(291.176 451.045)"><mask id="d" fill="#fff"><use xlink:href="#c"/></mask><path d="M10.98 23.75c.977 0 1.843-.227 2.558-.528l-2.634-2.783c-.225-.264-.225-.528 0-.791l1.806-1.804c.263-.227.564-.264.791 0l2.855 2.933a8.03 8.03 0 0 0 .641-3.197v-6.883c0-4.06-2.068-6.204-5.94-6.204-3.915 0-5.945 2.143-5.945 6.204v6.883c0 3.95 1.993 6.13 5.868 6.17zm9.026 5.336c-.302.303-.564.303-.791 0l-2.331-2.444c-1.616.904-3.535 1.393-5.828 1.393C4.36 28.035.486 24.16.486 17.58v-6.92C.486 4.08 4.359.242 11.056.242c6.656 0 10.565 3.838 10.565 10.418v6.92c0 2.708-.675 4.964-1.955 6.656l2.181 2.255c.227.264.264.528 0 .792l-1.84 1.803z" fill="#FFF" mask="url(#d)"/></g><path d="M333.393 479.08c-6.17 0-10.193-3.874-10.193-9.815v-16.96c0-.38.188-.565.565-.565h3.496c.338 0 .565.185.565.564v16.697c0 3.76 2.03 5.869 5.567 5.869 3.533 0 5.638-2.109 5.638-5.869v-16.697c0-.379.19-.564.565-.564h3.5c.373 0 .56.185.56.564v16.961c0 5.94-4.021 9.816-10.263 9.816m26.043-4.588h12.073c.375 0 .565.19.565.528v3.042c0 .38-.19.565-.565.565h-16.097c-.338 0-.527-.186-.527-.565v-25.758c0-.38.19-.567.527-.567h15.57c.377 0 .564.188.564.567v3.045c0 .34-.187.525-.564.525h-11.546v7.035h10.566c.378 0 .565.186.565.561v3.01c0 .377-.187.565-.565.565h-10.566v7.447zm52.554-22.753c.339 0 .565.187.565.564v3.084c0 .34-.226.525-.564.525h-7.557v22.151c0 .377-.188.565-.528.565h-3.46c-.34 0-.528-.188-.528-.565v-22.15h-7.594c-.339 0-.565-.186-.565-.526v-3.084c0-.377.226-.565.565-.565h19.667zm19.36 27.34c-6.17 0-10.194-3.874-10.194-9.815v-16.96c0-.38.19-.565.565-.565h3.496c.34 0 .565.185.565.564v16.697c0 3.76 2.03 5.869 5.567 5.869 3.533 0 5.64-2.109 5.64-5.869v-16.697c0-.379.188-.564.565-.564h3.498c.373 0 .563.185.563.564v16.961c0 5.94-4.024 9.816-10.266 9.816m26.043-4.701h5.304c3.61 0 5.45-1.77 5.45-5.53v-7.219c0-3.873-1.84-5.718-5.45-5.718h-5.304v18.467zm-4.025 4.249c-.337 0-.524-.188-.524-.565v-25.76c0-.377.187-.565.524-.565h9.329c6.242 0 10.152 3.348 10.152 9.927v7.147c0 6.504-3.91 9.816-10.152 9.816h-9.33zm39.7-3.834c3.91 0 5.94-2.148 5.94-6.17v-6.883c0-4.06-2.03-6.204-5.94-6.204-3.912 0-5.945 2.144-5.945 6.204v6.883c0 4.022 2.033 6.17 5.945 6.17m0 4.285c-6.66 0-10.568-3.875-10.568-10.455v-6.92c0-6.58 3.908-10.417 10.568-10.417 6.656 0 10.566 3.838 10.566 10.417v6.92c0 6.58-3.91 10.455-10.566 10.455m39.013-4.587h12.073c.375 0 .565.19.565.528v3.042c0 .38-.19.565-.565.565h-16.1c-.335 0-.522-.186-.522-.565v-25.758c0-.38.187-.567.522-.567h15.573c.377 0 .564.188.564.567v3.045c0 .34-.187.525-.564.525H532.08v7.035h10.567c.377 0 .564.186.564.561v3.01c0 .377-.187.565-.564.565H532.08v7.447zm29.62 4.136c-.3 0-.488-.151-.639-.452l-9.1-25.8c-.114-.414.037-.638.451-.638h3.76c.3 0 .526.15.602.451l4.926 14.555c.755 2.22 1.505 4.665 2.181 6.844h.15c.755-2.218 1.466-4.55 2.22-6.844l4.89-14.555c.074-.3.338-.451.64-.451h3.759c.375 0 .565.224.414.639l-9.1 25.8c-.114.3-.303.45-.602.45H561.7zm32.18-3.834c3.91 0 5.939-2.148 5.939-6.17v-6.883c0-4.06-2.029-6.204-5.94-6.204-3.914 0-5.944 2.144-5.944 6.204v6.883c0 4.022 2.03 6.17 5.945 6.17m0 4.285c-6.66 0-10.57-3.875-10.57-10.455v-6.92c0-6.58 3.91-10.417 10.57-10.417 6.654 0 10.564 3.838 10.564 10.417v6.92c0 6.58-3.91 10.455-10.564 10.455m21.609-.451c-.34 0-.528-.188-.528-.565v-25.76c0-.378.188-.565.528-.565h3.496c.338 0 .527.187.527.564v22.151h11.055c.375 0 .565.19.565.53v3.08c0 .377-.19.565-.565.565H615.49zm33.797.451c-6.17 0-10.193-3.874-10.193-9.815v-16.96c0-.38.19-.565.565-.565h3.496c.338 0 .565.185.565.564v16.697c0 3.76 2.03 5.869 5.567 5.869 3.534 0 5.64-2.109 5.64-5.869v-16.697c0-.379.186-.564.565-.564h3.498c.373 0 .563.185.563.564v16.961c0 5.94-4.026 9.816-10.266 9.816m26.008-1.017c0 .377-.188.565-.528.565h-3.457c-.34 0-.527-.188-.527-.565v-25.76c0-.378.187-.565.527-.565h3.457c.34 0 .528.187.528.564v25.76zm12.813.753c-1.653 0-2.744-1.168-2.744-2.745 0-1.653 1.09-2.783 2.744-2.783 1.616 0 2.785 1.13 2.785 2.783 0 1.577-1.169 2.745-2.785 2.745M8.618 359.289C3.747 356.67 0 351.066 0 343.587c0-10.093 7.868-18.319 18.358-18.319 3.748 0 7.117 1.12 9.742 2.617 19.108 12.71 38.965 19.067 56.95 19.067 19.482 0 30.723-8.225 30.723-21.31v-.75c0-15.326-20.984-20.561-44.212-27.663-29.225-8.227-61.82-20.19-61.82-57.951v-.747c0-37.386 31.098-60.193 70.438-60.193 20.98 0 43.086 5.982 62.195 16.077 6.366 3.363 10.863 9.347 10.863 17.197 0 10.469-8.24 18.319-18.733 18.319-3.746 0-5.994-.747-8.991-2.246-16.11-8.22-32.596-13.454-46.46-13.454-17.609 0-27.724 8.223-27.724 19.438v.749c0 14.58 21.356 20.564 44.585 28.038 28.85 8.976 61.444 22.06 61.444 57.579v.744c0 41.5-32.22 62.064-73.433 62.064-25.103 0-52.454-7.852-75.307-23.554m438.364-77.765v-.747c0-34.769-25.102-63.558-60.696-63.558-36.342 0-59.571 28.416-59.571 62.81v.748c0 34.398 25.101 63.183 60.32 63.183 36.717 0 59.947-28.414 59.947-62.436m-165.6 0v-.747c0-56.455 44.957-103.187 105.653-103.187 60.697 0 105.282 45.986 105.282 102.439v.748c0 56.08-44.96 102.812-106.03 102.812-60.32 0-104.906-45.986-104.906-102.065m274.26 76.83v-95.13c0-22.263 16.343-41.793 38.518-44.234 26.217-2.886 48.403 17.517 48.403 43.094v96.27c0 12.493 10.15 22.62 22.669 22.62 12.518 0 22.669-10.127 22.669-22.62v-91.77c0-48.935-39.757-88.607-88.8-88.607-49.038 0-88.794 39.672-88.794 88.607v91.77c0 12.493 10.148 22.62 22.667 22.62 12.52 0 22.668-10.127 22.668-22.62" fill="#FFF"/><path d="M261.52 222.829c11.381 0 20.607-9.206 20.607-20.562 0-11.358-9.226-20.564-20.607-20.564h-34.843v-33.46c0-12.493-10.148-22.62-22.667-22.62-12.518 0-22.667 10.127-22.667 22.62v166.535h.114c1.147 36.348 29.182 66.026 67.654 68.561 1.016.149 2.048.252 3.107.252h8.84c11.636 0 21.07-9.413 21.07-21.025 0-11.614-9.434-21.025-21.07-21.025h-6.15c-16.146 0-27.723-12.91-28.231-28.56v-90.152h34.843zm519.98 54.286c0 10.736 8.724 19.44 19.483 19.44h74.019c10.76 0 19.482-8.704 19.482-19.44 0-56.457-37.769-99.525-90.26-99.525-59.692 0-100.587 46.732-100.587 103.187v.747c0 56.08 43.848 102.066 103.172 102.066 25.52 0 48.169-8.446 65.782-22.46 10.027-7.975 10.525-23 .915-31.472-7.846-6.914-19.56-6.729-27.377.22-9.87 8.77-22.983 14.082-38.585 14.082-34.635 0-59.322-28.785-59.322-63.183v-.748c0-34.394 19.524-62.81 55.267-62.81 23.606 0 40.19 16.92 46.676 40.456h-49.182c-10.76 0-19.483 8.704-19.483 19.44" fill="#FFF"/></g></svg>