<svg xmlns="http://www.w3.org/2000/svg" viewBox="0 0 119.94 44.85"><defs><style>.cls-1{fill:#0db14b;fill-rule:evenodd;}</style></defs><title>Ativo 1</title><g id="Camada_2" data-name="Camada 2"><g id="Camada_1-2" data-name="Camada 1"><path id="Caminho_289" data-name="Caminho 289" class="cls-1" d="M106.37,20.45l-8.88-8.87a1.75,1.75,0,0,1,0-2.47h0L106.37.24a.77.77,0,0,1,1.09,0,.83.83,0,0,1,.23.54V19.91a.78.78,0,0,1-.78.77A.74.74,0,0,1,106.37,20.45Zm4-20.45a10.36,10.36,0,0,1,0,20.67.76.76,0,0,1-.82-.7V15.76a.76.76,0,0,1,.64-.76,4.71,4.71,0,0,0,0-9.33.75.75,0,0,1-.64-.76V.77A.77.77,0,0,1,110.3,0ZM0,40.17A2.14,2.14,0,0,1,2.11,38h0a2.41,2.41,0,0,1,1.15.31A12.23,12.23,0,0,0,10,40.56c2.28,0,3.61-1,3.61-2.5V38c0-1.79-2.46-2.41-5.19-3.24-3.43-1-7.25-2.36-7.25-6.79v-.09c0-4.38,3.64-7,8.26-7a15.87,15.87,0,0,1,7.29,1.88,2.27,2.27,0,0,1,1.28,2,2.15,2.15,0,0,1-2.13,2.15h-.07a2.06,2.06,0,0,1-1.06-.26A12.54,12.54,0,0,0,9.27,25C7.21,25,6,26,6,27.29v.09c0,1.71,2.51,2.41,5.23,3.28,3.39,1.06,7.21,2.59,7.21,6.75v.09c0,4.87-3.78,7.27-8.61,7.27A15.93,15.93,0,0,1,1,42a2,2,0,0,1-1-1.84ZM33,32.8A12.12,12.12,0,0,1,45.14,20.7h.26A12,12,0,0,1,57.74,32.35c0,.12,0,.24,0,.36v.08A12.12,12.12,0,0,1,45.58,44.85h-.27A12,12,0,0,1,33,33.21V32.8Zm19.42,0a7.15,7.15,0,0,0-6.86-7.44h-.26c-4.27,0-7,3.33-7,7.36v.09a7.14,7.14,0,0,0,6.87,7.4h.2c4.32,0,7-3.33,7-7.32Zm12.74,9.09a2.66,2.66,0,0,1-5.32,0h0V31.14a10.42,10.42,0,0,1,20.83,0V41.9a2.66,2.66,0,0,1-5.31,0V30.61a5.08,5.08,0,0,0-5.09-5.08,5.83,5.83,0,0,0-.59,0,5.18,5.18,0,0,0-4.52,5.18ZM30.68,26H26.6V36.57a3.35,3.35,0,0,0,3.32,3.35h.72a2.47,2.47,0,1,1,.09,4.93H29.6a2.22,2.22,0,0,1-.37,0,8.31,8.31,0,0,1-7.93-8h0V17.26a2.66,2.66,0,0,1,5.31,0v3.92h4.09a2.42,2.42,0,0,1,0,4.83Zm61,6.36a2.28,2.28,0,0,1,2.27-2.28H99.7c-.76-2.76-2.7-4.74-5.47-4.74-4.19,0-6.48,3.33-6.48,7.37v.08c0,4,2.89,7.4,7,7.4a6.67,6.67,0,0,0,4.53-1.65,2.4,2.4,0,0,1,3.1,3.67h0a12.27,12.27,0,0,1-7.72,2.63,11.88,11.88,0,0,1-12.1-11.66V32.8c0-6.62,4.8-12.1,11.8-12.1,6.16,0,10.59,5.05,10.59,11.67a2.28,2.28,0,0,1-2.28,2.28H94a2.28,2.28,0,0,1-2.28-2.28Z"/></g></g></svg>